<?xml version="1.0"?>
<svg xmlns="http://www.w3.org/2000/svg" xmlns:xlink="http://www.w3.org/1999/xlink" version="1.1" viewBox="0 0 192 192" width="96px" height="96px"><g fill="none" fill-rule="nonzero" stroke="none" stroke-width="1" stroke-linecap="butt" stroke-linejoin="miter" stroke-miterlimit="10" stroke-dasharray="" stroke-dashoffset="0" font-family="none" font-weight="none" font-size="none" text-anchor="none" style="mix-blend-mode: normal"><path d="M0,192v-192h192v192z" fill="none"/><g fill="#0972ff"><g id="surface1"><path d="M66,24c-23.13281,0 -42,18.86719 -42,42c0,6.1875 1.89844,11.92969 4.3125,17.25c-0.77344,4.14844 -1.3125,8.36719 -1.3125,12.75c0,38.03906 30.96094,69 69,69c4.38281,0 8.60156,-0.53906 12.75,-1.3125c5.32031,2.41406 11.0625,4.3125 17.25,4.3125c23.13281,0 42,-18.86719 42,-42c0,-6.1875 -1.89844,-11.92969 -4.3125,-17.25c0.77344,-4.14844 1.3125,-8.36719 1.3125,-12.75c0,-38.03906 -30.96094,-69 -69,-69c-4.38281,0 -8.60156,0.53906 -12.75,1.3125c-5.32031,-2.41406 -11.0625,-4.3125 -17.25,-4.3125zM66,36c5.17969,0 10.00781,1.26563 14.25,3.5625c1.26563,0.67969 2.71875,0.86719 4.125,0.5625c3.77344,-0.77344 7.61719,-1.125 11.625,-1.125c31.54688,0 57,25.45313 57,57c0,4.00781 -0.35156,7.85156 -1.125,11.625c-0.30469,1.40625 -0.11719,2.85938 0.5625,4.125c2.29688,4.24219 3.5625,9.07031 3.5625,14.25c0,16.64063 -13.35937,30 -30,30c-5.17969,0 -10.00781,-1.26562 -14.25,-3.5625c-1.26562,-0.67969 -2.71875,-0.86719 -4.125,-0.5625c-3.77344,0.77344 -7.61719,1.125 -11.625,1.125c-31.54687,0 -57,-25.45312 -57,-57c0,-4.00781 0.35156,-7.85156 1.125,-11.625c0.30469,-1.40625 0.11719,-2.85937 -0.5625,-4.125c-2.29687,-4.24219 -3.5625,-9.07031 -3.5625,-14.25c0,-16.64062 13.35938,-30 30,-30zM95.0625,54.9375c-14.83594,0 -30.75,6.28125 -30.75,23.0625c0,8.08594 2.85938,16.64063 18.75,20.625l19.875,4.875c5.97656,1.47656 7.5,4.85156 7.5,7.875c0,5.03906 -4.99219,9.9375 -14.0625,9.9375c-17.71875,0 -15.44531,-13.5 -24.9375,-13.5c-4.26562,0 -7.3125,2.92969 -7.3125,7.125c0,8.17969 10.05469,18.9375 32.25,18.9375c21.11719,0 31.5,-10.19531 31.5,-23.8125c0,-8.8125 -4.05469,-18 -20.0625,-21.5625l-14.625,-3.375c-5.55469,-1.26562 -12,-2.83594 -12,-8.0625c0,-5.25 4.45313,-9 12.5625,-9c16.33594,0 14.95313,11.25 23.0625,11.25c4.26563,0 7.875,-2.4375 7.875,-6.75c0,-10.07812 -15.96094,-17.625 -29.625,-17.625z"/></g></g></g></svg>
